<svg width="24" height="25" viewBox="0 0 24 25" fill="none" xmlns="http://www.w3.org/2000/svg">
<path d="M3 12.4902C3.00105 16.9174 6.22045 20.6871 10.593 21.3809V15.0911H8.30982V12.4902H10.5957V10.5102C10.4935 9.57204 10.814 8.63702 11.4702 7.95875C12.1264 7.28048 13.0503 6.92926 13.9913 7.00034C14.6668 7.01125 15.3405 7.07141 16.0072 7.18034V9.39336H14.8697C14.4781 9.34206 14.0843 9.47141 13.7994 9.74495C13.5145 10.0185 13.3692 10.4066 13.4045 10.8V12.4902H15.8984L15.4997 15.092H13.4045V21.3809C18.1334 20.6336 21.4494 16.3148 20.9503 11.5533C20.4512 6.79188 16.3117 3.25461 11.5306 3.50412C6.7496 3.75364 3.00076 7.70259 3 12.4902Z" fill="white"/>
</svg>
