<svg width="24" height="25" viewBox="0 0 24 25" fill="none" xmlns="http://www.w3.org/2000/svg">
<path d="M8.27262 3.55399C7.31501 3.59917 6.66088 3.75253 6.08938 3.97645C5.49771 4.20703 4.99623 4.51627 4.49726 5.01721C3.99775 5.51851 3.69103 6.02089 3.46207 6.61309C3.24049 7.18603 3.09019 7.84051 3.04806 8.79864C3.00594 9.75876 2.9964 10.0649 3.00108 12.509C3.00576 14.9527 3.01656 15.2594 3.06228 16.2197C3.10801 17.1771 3.26083 17.8309 3.48475 18.4027C3.71569 18.9944 4.02458 19.4957 4.5257 19.9948C5.02665 20.4939 5.52939 20.8005 6.12196 21.0296C6.69436 21.251 7.34903 21.4017 8.307 21.4436C9.26695 21.4859 9.57349 21.4953 12.0168 21.4906C14.4613 21.4859 14.7678 21.4751 15.7278 21.4296C16.6854 21.3839 17.3388 21.2305 17.911 21.0071C18.5027 20.7756 19.0042 20.4673 19.5031 19.9662C20.0021 19.4652 20.3088 18.9625 20.5378 18.37C20.7594 17.7976 20.9102 17.1429 20.9518 16.1855C20.9937 15.225 21.0036 14.9181 20.9989 12.4746C20.9943 10.0307 20.9833 9.72456 20.9377 8.7648C20.8922 7.80667 20.7388 7.15309 20.5153 6.58105C20.284 5.98939 19.9754 5.48845 19.4745 4.98895C18.9736 4.48999 18.4708 4.18273 17.8782 3.95431C17.3055 3.73273 16.6512 3.58171 15.6932 3.54031C14.7334 3.49747 14.4271 3.48811 11.9828 3.49279C9.53911 3.49747 9.23275 3.50791 8.2728 3.55399M8.37774 19.8238C7.50023 19.7856 7.02377 19.6398 6.70624 19.5176C6.28576 19.3549 5.9857 19.1598 5.66979 18.8464C5.35461 18.5318 5.15895 18.2326 4.99479 17.813C4.87148 17.4955 4.72298 17.0196 4.68194 16.1421C4.6373 15.1935 4.62704 14.9089 4.62272 12.5057C4.61804 10.1033 4.62686 9.81852 4.66826 8.8692C4.70588 7.99243 4.85258 7.51525 4.97445 7.19809C5.13717 6.77707 5.33157 6.47755 5.64567 6.16165C5.96032 5.84593 6.25948 5.65081 6.67942 5.48665C6.99677 5.36263 7.47251 5.21539 8.34966 5.17381C9.29881 5.12881 9.58322 5.11927 11.9857 5.11459C14.3887 5.10991 14.6735 5.11837 15.6228 5.16013C16.4996 5.19829 16.9768 5.34355 17.2938 5.46631C17.7146 5.62903 18.0147 5.82289 18.3302 6.13753C18.6458 6.45217 18.8414 6.75079 19.0056 7.17163C19.1294 7.48807 19.2769 7.96453 19.3183 8.8413C19.3634 9.79044 19.3737 10.075 19.378 12.4777C19.3827 14.8808 19.3739 15.1654 19.3323 16.1142C19.2941 16.9917 19.1485 17.4683 19.0261 17.7862C18.8634 18.2063 18.6688 18.5064 18.3545 18.8223C18.0402 19.1369 17.7411 19.3331 17.3208 19.4973C17.0042 19.6209 16.5277 19.7685 15.6511 19.8101C14.7019 19.8548 14.4175 19.865 12.0141 19.8693C9.61166 19.874 9.32725 19.865 8.37792 19.8238M15.7146 7.68085C15.7157 8.27682 16.2004 8.7594 16.7964 8.75832C17.3928 8.75724 17.8754 8.27286 17.8745 7.67671C17.8732 7.08073 17.3886 6.59779 16.7923 6.59887C16.1959 6.59995 15.7134 7.08469 15.7144 7.68067M7.37891 12.5005C7.38377 15.0529 9.45685 17.1175 12.0087 17.1125C14.5608 17.1074 16.6265 15.0351 16.6217 12.4827C16.6166 9.9312 14.5433 7.86553 11.9909 7.87039C9.43903 7.87543 7.37387 9.94866 7.37891 12.5005ZM9.00001 12.4973C8.99713 10.8407 10.338 9.49488 11.9942 9.492C13.6507 9.48876 14.9968 10.829 15 12.4859C15.0033 14.1428 13.6624 15.4883 12.0055 15.4916C10.3491 15.4948 9.00307 14.1544 9.00001 12.4975" fill="white"/>
</svg>
