<svg width="24" height="25" viewBox="0 0 24 25" fill="none" xmlns="http://www.w3.org/2000/svg">
<path d="M19.6441 7.05332C20.5012 6.54093 21.1425 5.73411 21.4483 4.78351C20.6429 5.26137 19.7618 5.598 18.8429 5.77882C17.569 4.4312 15.5505 4.10325 13.9155 4.97822C12.2804 5.85319 11.4335 7.71446 11.848 9.52201C8.54901 9.35638 5.47544 7.79805 3.3921 5.23479C2.30485 7.11013 2.86046 9.50746 4.66182 10.7133C4.01043 10.6924 3.37348 10.516 2.80409 10.1989C2.80409 10.2161 2.80409 10.2334 2.80409 10.2506C2.80447 12.2041 4.18125 13.8867 6.09599 14.2739C5.49179 14.4383 4.85802 14.4625 4.24304 14.3446C4.78153 16.0152 6.32121 17.1597 8.07611 17.1939C6.62265 18.3346 4.82769 18.9533 2.98002 18.9503C2.65252 18.9507 2.32528 18.9319 2 18.8938C3.87627 20.0995 6.06002 20.7395 8.29028 20.7372C11.3931 20.7585 14.375 19.5353 16.569 17.3411C18.763 15.147 19.986 12.1649 19.9644 9.06212C19.9644 8.88428 19.9603 8.7074 19.952 8.53147C20.7556 7.95073 21.4491 7.2313 22 6.40699C21.2514 6.73882 20.4573 6.95668 19.6441 7.05332Z" fill="white"/>
</svg>
